<svg width="29" height="43" viewBox="0 0 29 43" fill="none" xmlns="http://www.w3.org/2000/svg">
<path d="M25.1961 10.1002C22.8711 6.16102 19.5705 2.88735 15.6124 0.594785L14.9082 0.1875L14.204 0.594785C10.1786 2.91792 6.83601 6.26028 4.5126 10.2856C2.18919 14.3108 0.966914 18.877 0.968752 23.5247C0.968752 23.8275 0.974026 24.1351 0.984309 24.4388C1.12423 28.557 2.69914 32.0223 5.5388 34.4599C7.71181 36.3254 10.4992 37.4642 13.5023 37.7359V42.5933H16.3148V20.0933H13.502V34.9054C8.75023 34.3549 4.02093 30.9982 3.79496 24.3432C3.78565 24.0712 3.7809 23.7958 3.7809 23.5247C3.78927 19.5116 4.81418 15.566 6.75999 12.0562C8.70579 8.5463 11.5091 5.5866 14.9082 3.45325C18.3073 5.58664 21.1105 8.54636 23.0562 12.0562C25.002 15.5661 26.0268 19.5117 26.0352 23.5247C26.0352 23.7958 26.0304 24.0712 26.0211 24.3433C25.8404 29.6671 22.7773 32.8798 19.1266 34.2341V37.2107C21.021 36.6738 22.7778 35.7356 24.2776 34.4597C27.1173 32.0221 28.6922 28.5568 28.8321 24.4387C28.8424 24.135 28.8477 23.8274 28.8477 23.5247C28.8502 18.8042 27.5894 14.169 25.1961 10.1002Z" fill="#2E3831"/>
</svg>
