<svg width="40" height="40" viewBox="0 0 40 40" fill="none" xmlns="http://www.w3.org/2000/svg">
<path d="M5 20H20V22.5H5V20Z" fill="#2E3831"/>
<path d="M2.5 13.75H15V16.25H2.5V13.75Z" fill="#2E3831"/>
<path d="M37.3979 20.7575L33.6479 12.0075C33.5517 11.7826 33.3915 11.5909 33.1873 11.4562C32.9831 11.3216 32.7438 11.2499 32.4992 11.25H28.7492V8.75C28.7492 8.41848 28.6175 8.10054 28.3831 7.86612C28.1487 7.6317 27.8307 7.5 27.4992 7.5H7.4992V10H26.2492V25.695C25.6796 26.0257 25.1811 26.466 24.7825 26.9903C24.3839 27.5146 24.093 28.1127 23.9267 28.75H16.0717C15.7675 27.5717 15.0439 26.5448 14.0367 25.8617C13.0295 25.1787 11.8077 24.8865 10.6004 25.0399C9.39318 25.1932 8.28328 25.7816 7.47879 26.6947C6.67431 27.6078 6.23047 28.783 6.23047 30C6.23047 31.217 6.67431 32.3922 7.47879 33.3053C8.28328 34.2184 9.39318 34.8068 10.6004 34.9601C11.8077 35.1135 13.0295 34.8213 14.0367 34.1383C15.0439 33.4552 15.7675 32.4283 16.0717 31.25H23.9267C24.1986 32.3228 24.8205 33.2743 25.6939 33.954C26.5673 34.6336 27.6425 35.0027 28.7492 35.0027C29.8559 35.0027 30.931 34.6336 31.8045 33.954C32.6779 33.2743 33.2998 32.3228 33.5717 31.25H36.2492C36.5807 31.25 36.8987 31.1183 37.1331 30.8839C37.3675 30.6495 37.4992 30.3315 37.4992 30V21.25C37.4993 21.0807 37.4648 20.9131 37.3979 20.7575ZM11.2492 32.5C10.7547 32.5 10.2714 32.3534 9.86027 32.0787C9.44915 31.804 9.12872 31.4135 8.9395 30.9567C8.75028 30.4999 8.70077 29.9972 8.79723 29.5123C8.8937 29.0273 9.1318 28.5819 9.48143 28.2322C9.83106 27.8826 10.2765 27.6445 10.7615 27.548C11.2464 27.4516 11.7491 27.5011 12.2059 27.6903C12.6627 27.8795 13.0532 28.1999 13.3279 28.6111C13.6026 29.0222 13.7492 29.5055 13.7492 30C13.7485 30.6628 13.4849 31.2983 13.0162 31.767C12.5475 32.2357 11.912 32.4993 11.2492 32.5ZM28.7492 13.75H31.6742L34.3542 20H28.7492V13.75ZM28.7492 32.5C28.2547 32.5 27.7714 32.3534 27.3603 32.0787C26.9491 31.804 26.6287 31.4135 26.4395 30.9567C26.2503 30.4999 26.2008 29.9972 26.2972 29.5123C26.3937 29.0273 26.6318 28.5819 26.9814 28.2322C27.3311 27.8826 27.7765 27.6445 28.2615 27.548C28.7464 27.4516 29.2491 27.5011 29.7059 27.6903C30.1627 27.8795 30.5532 28.1999 30.8279 28.6111C31.1026 29.0222 31.2492 29.5055 31.2492 30C31.2485 30.6628 30.9849 31.2983 30.5162 31.767C30.0475 32.2357 29.412 32.4993 28.7492 32.5ZM34.9992 28.75H33.5717C33.2963 27.6793 32.6735 26.7302 31.8007 26.0516C30.928 25.3729 29.8547 25.0031 28.7492 25V22.5H34.9992V28.75Z" fill="#2E3831"/>
</svg>
