<svg width="32" height="32" viewBox="0 0 32 32" fill="none" xmlns="http://www.w3.org/2000/svg">
<path fill-rule="evenodd" clip-rule="evenodd" d="M9.57672 0.510492C11.2385 0.433992 11.7683 0.416992 16.0013 0.416992C20.2343 0.416992 20.7641 0.435409 22.4245 0.510492C24.0848 0.585575 25.2181 0.850492 26.2098 1.23441C27.2482 1.62683 28.1903 2.24024 28.9695 3.03358C29.7628 3.81133 30.3748 4.75199 30.7658 5.79183C31.1511 6.78349 31.4146 7.91683 31.4911 9.57433C31.5676 11.2389 31.5846 11.7687 31.5846 16.0003C31.5846 20.2333 31.5662 20.7632 31.4911 22.4249C31.4161 24.0824 31.1511 25.2157 30.7658 26.2074C30.3748 27.2474 29.7618 28.1896 28.9695 28.9685C28.1903 29.7618 27.2482 30.3738 26.2098 30.7648C25.2181 31.1502 24.0848 31.4137 22.4273 31.4902C20.7641 31.5667 20.2343 31.5837 16.0013 31.5837C11.7683 31.5837 11.2385 31.5652 9.57672 31.4902C7.91922 31.4151 6.78589 31.1502 5.79422 30.7648C4.75427 30.3738 3.81205 29.7608 3.03314 28.9685C2.24034 28.1903 1.62683 27.2485 1.23539 26.2088C0.851469 25.2172 0.587969 24.0838 0.511469 22.4263C0.434969 20.7617 0.417969 20.2319 0.417969 16.0003C0.417969 11.7673 0.436385 11.2375 0.511469 9.57716C0.586552 7.91683 0.851469 6.78349 1.23539 5.79183C1.62741 4.75211 2.24139 3.81035 3.03455 3.03216C3.81236 2.23954 4.75364 1.62604 5.7928 1.23441C6.78447 0.850492 7.9178 0.586992 9.5753 0.510492H9.57672ZM22.2984 3.31549C20.6551 3.24041 20.1621 3.22483 16.0013 3.22483C11.8406 3.22483 11.3476 3.24041 9.70422 3.31549C8.18413 3.38491 7.35964 3.63849 6.80997 3.85241C6.08322 4.13574 5.5633 4.47149 5.01789 5.01691C4.50087 5.5199 4.10297 6.13223 3.85339 6.80899C3.63947 7.35866 3.38589 8.18316 3.31647 9.70324C3.24139 11.3466 3.2258 11.8396 3.2258 16.0003C3.2258 20.1611 3.24139 20.6541 3.31647 22.2974C3.38589 23.8175 3.63947 24.642 3.85339 25.1917C4.10272 25.8674 4.5008 26.4808 5.01789 26.9837C5.5208 27.5008 6.13422 27.8989 6.80997 28.1482C7.35964 28.3622 8.18413 28.6157 9.70422 28.6852C11.3476 28.7602 11.8391 28.7758 16.0013 28.7758C20.1635 28.7758 20.6551 28.7602 22.2984 28.6852C23.8185 28.6157 24.643 28.3622 25.1926 28.1482C25.9194 27.8649 26.4393 27.5292 26.9847 26.9837C27.5018 26.4808 27.8999 25.8674 28.1492 25.1917C28.3631 24.642 28.6167 23.8175 28.6861 22.2974C28.7612 20.6541 28.7768 20.1611 28.7768 16.0003C28.7768 11.8396 28.7612 11.3466 28.6861 9.70324C28.6167 8.18316 28.3631 7.35866 28.1492 6.80899C27.8659 6.08224 27.5301 5.56233 26.9847 5.01691C26.4817 4.49993 25.8694 4.10204 25.1926 3.85241C24.643 3.63849 23.8185 3.38491 22.2984 3.31549ZM14.0109 20.8042C15.1225 21.267 16.3603 21.3294 17.5128 20.9809C18.6653 20.6324 19.6611 19.8946 20.3301 18.8935C20.9991 17.8924 21.2997 16.6901 21.1807 15.4919C21.0617 14.2937 20.5304 13.174 19.6776 12.3241C19.1339 11.7808 18.4765 11.3647 17.7528 11.106C17.029 10.8472 16.2569 10.7521 15.492 10.8275C14.7271 10.903 13.9884 11.1471 13.3292 11.5423C12.6699 11.9374 12.1065 12.4739 11.6795 13.1129C11.2524 13.752 10.9724 14.4778 10.8595 15.2381C10.7467 15.9984 10.8038 16.7742 11.0267 17.5098C11.2497 18.2454 11.633 18.9224 12.149 19.492C12.665 20.0617 13.3009 20.5098 14.0109 20.8042ZM10.3375 10.3365C11.0813 9.59271 11.9643 9.0027 12.9361 8.60017C13.9079 8.19764 14.9494 7.99046 16.0013 7.99046C17.0532 7.99046 18.0947 8.19764 19.0665 8.60017C20.0383 9.0027 20.9214 9.59271 21.6651 10.3365C22.4089 11.0803 22.9989 11.9633 23.4015 12.9351C23.804 13.9069 24.0112 14.9485 24.0112 16.0003C24.0112 17.0522 23.804 18.0938 23.4015 19.0656C22.9989 20.0374 22.4089 20.9204 21.6651 21.6642C20.163 23.1663 18.1257 24.0102 16.0013 24.0102C13.877 24.0102 11.8396 23.1663 10.3375 21.6642C8.83533 20.162 7.99143 18.1247 7.99143 16.0003C7.99143 13.876 8.83533 11.8386 10.3375 10.3365ZM25.7876 9.18333C25.972 9.00946 26.1195 8.80037 26.2216 8.56845C26.3236 8.33654 26.3781 8.0865 26.3818 7.83314C26.3855 7.57979 26.3383 7.32827 26.2431 7.09347C26.1478 6.85868 26.0064 6.64538 25.8272 6.46621C25.6481 6.28705 25.4348 6.14565 25.2 6.05039C24.9652 5.95514 24.7137 5.90796 24.4603 5.91165C24.207 5.91534 23.9569 5.96984 23.725 6.0719C23.4931 6.17396 23.284 6.32151 23.1101 6.50583C22.772 6.86428 22.5869 7.34041 22.594 7.83314C22.6012 8.32587 22.8002 8.7964 23.1486 9.14485C23.4971 9.4933 23.9676 9.69223 24.4603 9.69942C24.953 9.7066 25.4292 9.52147 25.7876 9.18333Z" fill="white"/>
</svg>
