<svg width="34" height="20" viewBox="0 0 34 20" fill="none" xmlns="http://www.w3.org/2000/svg">
<path fill-rule="evenodd" clip-rule="evenodd" d="M33.2208 1.42601C33.456 0.652508 33.2208 0.0830078 32.0946 0.0830078H28.3758C27.4295 0.0830078 26.9932 0.574591 26.7566 1.11717C26.7566 1.11717 24.8653 5.64484 22.1864 8.58584C21.3194 9.43868 20.9256 9.70926 20.4524 9.70926C20.2158 9.70926 19.8602 9.43868 19.8602 8.66376V1.42601C19.8602 0.496674 19.5996 0.0830078 18.8119 0.0830078H12.9639C12.3732 0.0830078 12.0176 0.513674 12.0176 0.923091C12.0176 1.80284 13.3577 2.00684 13.4952 4.48317V9.86368C13.4952 11.0438 13.2784 11.2577 12.8052 11.2577C11.5444 11.2577 8.47733 6.70876 6.65692 1.50392C6.30417 0.491008 5.94717 0.0830078 4.99658 0.0830078H1.275C0.2125 0.0830078 0 0.574591 0 1.11717C0 2.08334 1.26083 6.88301 5.87208 13.2311C8.94625 17.5661 13.2742 19.9163 17.2167 19.9163C19.5812 19.9163 19.873 19.395 19.873 18.4954V15.2187C19.873 14.1746 20.0968 13.9663 20.8463 13.9663C21.3988 13.9663 22.3437 14.2383 24.5508 16.3279C27.0725 18.8057 27.4876 19.9163 28.9071 19.9163H32.6258C33.6883 19.9163 34.221 19.395 33.915 18.3637C33.5778 17.338 32.3737 15.8491 30.7771 14.0825C29.9101 13.0767 28.6096 11.9929 28.2143 11.4503C27.6632 10.7548 27.8205 10.4445 28.2143 9.82543C28.2143 9.82543 32.7477 3.55526 33.2194 1.42601H33.2208Z" fill="white"/>
</svg>
