<svg xmlns="http://www.w3.org/2000/svg" xmlns:xlink="http://www.w3.org/1999/xlink">
    <symbol xmlns="http://www.w3.org/2000/svg" viewBox="0 0 34 20" id="icon-vk">
        <path fill-rule="evenodd" clip-rule="evenodd" d="M33.2208 1.42601C33.456 0.652508 33.2208 0.0830078 32.0946 0.0830078H28.3758C27.4295 0.0830078 26.9932 0.574591 26.7566 1.11717C26.7566 1.11717 24.8653 5.64484 22.1864 8.58584C21.3194 9.43868 20.9256 9.70926 20.4524 9.70926C20.2158 9.70926 19.8602 9.43868 19.8602 8.66376V1.42601C19.8602 0.496674 19.5996 0.0830078 18.8119 0.0830078H12.9639C12.3732 0.0830078 12.0176 0.513674 12.0176 0.923091C12.0176 1.80284 13.3577 2.00684 13.4952 4.48317V9.86368C13.4952 11.0438 13.2784 11.2577 12.8052 11.2577C11.5444 11.2577 8.47733 6.70876 6.65692 1.50392C6.30417 0.491008 5.94717 0.0830078 4.99658 0.0830078H1.275C0.2125 0.0830078 0 0.574591 0 1.11717C0 2.08334 1.26083 6.88301 5.87208 13.2311C8.94625 17.5661 13.2742 19.9163 17.2167 19.9163C19.5812 19.9163 19.873 19.395 19.873 18.4954V15.2187C19.873 14.1746 20.0968 13.9663 20.8463 13.9663C21.3988 13.9663 22.3437 14.2383 24.5508 16.3279C27.0725 18.8057 27.4876 19.9163 28.9071 19.9163H32.6258C33.6883 19.9163 34.221 19.395 33.915 18.3637C33.5778 17.338 32.3737 15.8491 30.7771 14.0825C29.9101 13.0767 28.6096 11.9929 28.2143 11.4503C27.6632 10.7548 27.8205 10.4445 28.2143 9.82543C28.2143 9.82543 32.7477 3.55526 33.2194 1.42601H33.2208Z" fill="white" />
    </symbol>
    <symbol xmlns="http://www.w3.org/2000/svg" viewBox="0 0 32 32" id="icon-insta">
        <path fill-rule="evenodd" clip-rule="evenodd" d="M9.57672 0.510492C11.2385 0.433992 11.7683 0.416992 16.0013 0.416992C20.2343 0.416992 20.7641 0.435409 22.4245 0.510492C24.0848 0.585575 25.2181 0.850492 26.2098 1.23441C27.2482 1.62683 28.1903 2.24024 28.9695 3.03358C29.7628 3.81133 30.3748 4.75199 30.7658 5.79183C31.1511 6.78349 31.4146 7.91683 31.4911 9.57433C31.5676 11.2389 31.5846 11.7687 31.5846 16.0003C31.5846 20.2333 31.5662 20.7632 31.4911 22.4249C31.4161 24.0824 31.1511 25.2157 30.7658 26.2074C30.3748 27.2474 29.7618 28.1896 28.9695 28.9685C28.1903 29.7618 27.2482 30.3738 26.2098 30.7648C25.2181 31.1502 24.0848 31.4137 22.4273 31.4902C20.7641 31.5667 20.2343 31.5837 16.0013 31.5837C11.7683 31.5837 11.2385 31.5652 9.57672 31.4902C7.91922 31.4151 6.78589 31.1502 5.79422 30.7648C4.75427 30.3738 3.81205 29.7608 3.03314 28.9685C2.24034 28.1903 1.62683 27.2485 1.23539 26.2088C0.851469 25.2172 0.587969 24.0838 0.511469 22.4263C0.434969 20.7617 0.417969 20.2319 0.417969 16.0003C0.417969 11.7673 0.436385 11.2375 0.511469 9.57716C0.586552 7.91683 0.851469 6.78349 1.23539 5.79183C1.62741 4.75211 2.24139 3.81035 3.03455 3.03216C3.81236 2.23954 4.75364 1.62604 5.7928 1.23441C6.78447 0.850492 7.9178 0.586992 9.5753 0.510492H9.57672ZM22.2984 3.31549C20.6551 3.24041 20.1621 3.22483 16.0013 3.22483C11.8406 3.22483 11.3476 3.24041 9.70422 3.31549C8.18413 3.38491 7.35964 3.63849 6.80997 3.85241C6.08322 4.13574 5.5633 4.47149 5.01789 5.01691C4.50087 5.5199 4.10297 6.13223 3.85339 6.80899C3.63947 7.35866 3.38589 8.18316 3.31647 9.70324C3.24139 11.3466 3.2258 11.8396 3.2258 16.0003C3.2258 20.1611 3.24139 20.6541 3.31647 22.2974C3.38589 23.8175 3.63947 24.642 3.85339 25.1917C4.10272 25.8674 4.5008 26.4808 5.01789 26.9837C5.5208 27.5008 6.13422 27.8989 6.80997 28.1482C7.35964 28.3622 8.18413 28.6157 9.70422 28.6852C11.3476 28.7602 11.8391 28.7758 16.0013 28.7758C20.1635 28.7758 20.6551 28.7602 22.2984 28.6852C23.8185 28.6157 24.643 28.3622 25.1926 28.1482C25.9194 27.8649 26.4393 27.5292 26.9847 26.9837C27.5018 26.4808 27.8999 25.8674 28.1492 25.1917C28.3631 24.642 28.6167 23.8175 28.6861 22.2974C28.7612 20.6541 28.7768 20.1611 28.7768 16.0003C28.7768 11.8396 28.7612 11.3466 28.6861 9.70324C28.6167 8.18316 28.3631 7.35866 28.1492 6.80899C27.8659 6.08224 27.5301 5.56233 26.9847 5.01691C26.4817 4.49993 25.8694 4.10204 25.1926 3.85241C24.643 3.63849 23.8185 3.38491 22.2984 3.31549ZM14.0109 20.8042C15.1225 21.267 16.3603 21.3294 17.5128 20.9809C18.6653 20.6324 19.6611 19.8946 20.3301 18.8935C20.9991 17.8924 21.2997 16.6901 21.1807 15.4919C21.0617 14.2937 20.5304 13.174 19.6776 12.3241C19.1339 11.7808 18.4765 11.3647 17.7528 11.106C17.029 10.8472 16.2569 10.7521 15.492 10.8275C14.7271 10.903 13.9884 11.1471 13.3292 11.5423C12.6699 11.9374 12.1065 12.4739 11.6795 13.1129C11.2524 13.752 10.9724 14.4778 10.8595 15.2381C10.7467 15.9984 10.8038 16.7742 11.0267 17.5098C11.2497 18.2454 11.633 18.9224 12.149 19.492C12.665 20.0617 13.3009 20.5098 14.0109 20.8042ZM10.3375 10.3365C11.0813 9.59271 11.9643 9.0027 12.9361 8.60017C13.9079 8.19764 14.9494 7.99046 16.0013 7.99046C17.0532 7.99046 18.0947 8.19764 19.0665 8.60017C20.0383 9.0027 20.9214 9.59271 21.6651 10.3365C22.4089 11.0803 22.9989 11.9633 23.4015 12.9351C23.804 13.9069 24.0112 14.9485 24.0112 16.0003C24.0112 17.0522 23.804 18.0938 23.4015 19.0656C22.9989 20.0374 22.4089 20.9204 21.6651 21.6642C20.163 23.1663 18.1257 24.0102 16.0013 24.0102C13.877 24.0102 11.8396 23.1663 10.3375 21.6642C8.83533 20.162 7.99143 18.1247 7.99143 16.0003C7.99143 13.876 8.83533 11.8386 10.3375 10.3365ZM25.7876 9.18333C25.972 9.00946 26.1195 8.80037 26.2216 8.56845C26.3236 8.33654 26.3781 8.0865 26.3818 7.83314C26.3855 7.57979 26.3383 7.32827 26.2431 7.09347C26.1478 6.85868 26.0064 6.64538 25.8272 6.46621C25.6481 6.28705 25.4348 6.14565 25.2 6.05039C24.9652 5.95514 24.7137 5.90796 24.4603 5.91165C24.207 5.91534 23.9569 5.96984 23.725 6.0719C23.4931 6.17396 23.284 6.32151 23.1101 6.50583C22.772 6.86428 22.5869 7.34041 22.594 7.83314C22.6012 8.32587 22.8002 8.7964 23.1486 9.14485C23.4971 9.4933 23.9676 9.69223 24.4603 9.69942C24.953 9.7066 25.4292 9.52147 25.7876 9.18333Z" fill="white" />
    </symbol>
    <symbol xmlns="http://www.w3.org/2000/svg" viewBox="0 0 40 40" id="icon-delivery">
        <path d="M5 20H20V22.5H5V20Z" fill="#2E3831" />
        <path d="M2.5 13.75H15V16.25H2.5V13.75Z" fill="#2E3831" />
        <path d="M37.3979 20.7575L33.6479 12.0075C33.5517 11.7826 33.3915 11.5909 33.1873 11.4562C32.9831 11.3216 32.7438 11.2499 32.4992 11.25H28.7492V8.75C28.7492 8.41848 28.6175 8.10054 28.3831 7.86612C28.1487 7.6317 27.8307 7.5 27.4992 7.5H7.4992V10H26.2492V25.695C25.6796 26.0257 25.1811 26.466 24.7825 26.9903C24.3839 27.5146 24.093 28.1127 23.9267 28.75H16.0717C15.7675 27.5717 15.0439 26.5448 14.0367 25.8617C13.0295 25.1787 11.8077 24.8865 10.6004 25.0399C9.39318 25.1932 8.28328 25.7816 7.47879 26.6947C6.67431 27.6078 6.23047 28.783 6.23047 30C6.23047 31.217 6.67431 32.3922 7.47879 33.3053C8.28328 34.2184 9.39318 34.8068 10.6004 34.9601C11.8077 35.1135 13.0295 34.8213 14.0367 34.1383C15.0439 33.4552 15.7675 32.4283 16.0717 31.25H23.9267C24.1986 32.3228 24.8205 33.2743 25.6939 33.954C26.5673 34.6336 27.6425 35.0027 28.7492 35.0027C29.8559 35.0027 30.931 34.6336 31.8045 33.954C32.6779 33.2743 33.2998 32.3228 33.5717 31.25H36.2492C36.5807 31.25 36.8987 31.1183 37.1331 30.8839C37.3675 30.6495 37.4992 30.3315 37.4992 30V21.25C37.4993 21.0807 37.4648 20.9131 37.3979 20.7575ZM11.2492 32.5C10.7547 32.5 10.2714 32.3534 9.86027 32.0787C9.44915 31.804 9.12872 31.4135 8.9395 30.9567C8.75028 30.4999 8.70077 29.9972 8.79723 29.5123C8.8937 29.0273 9.1318 28.5819 9.48143 28.2322C9.83106 27.8826 10.2765 27.6445 10.7615 27.548C11.2464 27.4516 11.7491 27.5011 12.2059 27.6903C12.6627 27.8795 13.0532 28.1999 13.3279 28.6111C13.6026 29.0222 13.7492 29.5055 13.7492 30C13.7485 30.6628 13.4849 31.2983 13.0162 31.767C12.5475 32.2357 11.912 32.4993 11.2492 32.5ZM28.7492 13.75H31.6742L34.3542 20H28.7492V13.75ZM28.7492 32.5C28.2547 32.5 27.7714 32.3534 27.3603 32.0787C26.9491 31.804 26.6287 31.4135 26.4395 30.9567C26.2503 30.4999 26.2008 29.9972 26.2972 29.5123C26.3937 29.0273 26.6318 28.5819 26.9814 28.2322C27.3311 27.8826 27.7765 27.6445 28.2615 27.548C28.7464 27.4516 29.2491 27.5011 29.7059 27.6903C30.1627 27.8795 30.5532 28.1999 30.8279 28.6111C31.1026 29.0222 31.2492 29.5055 31.2492 30C31.2485 30.6628 30.9849 31.2983 30.5162 31.767C30.0475 32.2357 29.412 32.4993 28.7492 32.5ZM34.9992 28.75H33.5717C33.2963 27.6793 32.6735 26.7302 31.8007 26.0516C30.928 25.3729 29.8547 25.0031 28.7492 25V22.5H34.9992V28.75Z" fill="#2E3831" />
    </symbol>
    <symbol xmlns="http://www.w3.org/2000/svg" viewBox="0 0 45 46" id="icon-badge">
        <path d="M28.8594 34.5L29.1844 41.2382L22.5168 36.5017L15.8119 41.2427L16.1372 34.5H13.3213L12.8359 44.5625H16.0608L22.5131 40.0002L28.9356 44.5625H32.1606L31.6753 34.5H28.8594Z" fill="#2E3831" />
        <path d="M36.5088 13.9185L36.316 9.60114L32.7551 7.27176L30.4759 3.63138L26.2524 3.43372L22.4983 1.44629L18.7442 3.43417L14.5206 3.63183L12.2414 7.27176L8.68056 9.60114L8.48773 13.9185L6.54297 17.7561L8.48773 21.5937L8.68108 25.911L12.2414 28.2404L14.5203 31.8809L18.7439 32.0781L22.4983 34.0659L26.2524 32.0781L30.4759 31.8809L32.7548 28.2404L36.3159 25.9114L36.5088 21.5941L38.4536 17.7564L36.5088 13.9185ZM33.7274 20.8319L33.5725 24.2921L30.7183 26.1591L28.8919 29.0767L25.5068 29.2349L22.4983 30.8281L19.4894 29.2349L16.1043 29.0767L14.278 26.1591L11.4241 24.2921L11.2695 20.8319L9.7102 17.7561L11.2691 14.6809L11.4241 11.2201L14.278 9.35317L16.1043 6.43558L19.4894 6.27746L22.4983 4.68417L25.5071 6.27737L28.8922 6.43549L30.7186 9.35308L33.5725 11.2201L33.7271 14.6805L35.2864 17.7561L33.7274 20.8319Z" fill="#2E3831" />
    </symbol>
    <symbol xmlns="http://www.w3.org/2000/svg" viewBox="0 0 34 35" id="icon-lock">
        <path d="M26.9167 14.167H7.08333C5.51853 14.167 4.25 15.4355 4.25 17.0003V28.3337C4.25 29.8985 5.51853 31.167 7.08333 31.167H26.9167C28.4815 31.167 29.75 29.8985 29.75 28.3337V17.0003C29.75 15.4355 28.4815 14.167 26.9167 14.167Z" stroke="#2E3831" stroke-width="3.33333" stroke-linecap="round" stroke-linejoin="round" />
        <path d="M8.5 8.5C8.5 7.37283 8.94777 6.29183 9.7448 5.4948C10.5418 4.69777 11.6228 4.25 12.75 4.25H21.25C22.3772 4.25 23.4582 4.69777 24.2552 5.4948C25.0522 6.29183 25.5 7.37283 25.5 8.5V14.1667H8.5V8.5Z" stroke="#2E3831" stroke-width="3.33333" stroke-linecap="round" stroke-linejoin="round" />
    </symbol>
    <symbol xmlns="http://www.w3.org/2000/svg" viewBox="0 0 29 43" id="icon-sheet">
        <path d="M25.1961 10.1002C22.8711 6.16102 19.5705 2.88735 15.6124 0.594785L14.9082 0.1875L14.204 0.594785C10.1786 2.91792 6.83601 6.26028 4.5126 10.2856C2.18919 14.3108 0.966914 18.877 0.968752 23.5247C0.968752 23.8275 0.974026 24.1351 0.984309 24.4388C1.12423 28.557 2.69914 32.0223 5.5388 34.4599C7.71181 36.3254 10.4992 37.4642 13.5023 37.7359V42.5933H16.3148V20.0933H13.502V34.9054C8.75023 34.3549 4.02093 30.9982 3.79496 24.3432C3.78565 24.0712 3.7809 23.7958 3.7809 23.5247C3.78927 19.5116 4.81418 15.566 6.75999 12.0562C8.70579 8.5463 11.5091 5.5866 14.9082 3.45325C18.3073 5.58664 21.1105 8.54636 23.0562 12.0562C25.002 15.5661 26.0268 19.5117 26.0352 23.5247C26.0352 23.7958 26.0304 24.0712 26.0211 24.3433C25.8404 29.6671 22.7773 32.8798 19.1266 34.2341V37.2107C21.021 36.6738 22.7778 35.7356 24.2776 34.4597C27.1173 32.0221 28.6922 28.5568 28.8321 24.4387C28.8424 24.135 28.8477 23.8274 28.8477 23.5247C28.8502 18.8042 27.5894 14.169 25.1961 10.1002Z" fill="#2E3831"/>
    </symbol>
</svg>