<svg width="103" height="37" viewBox="0 0 103 37" fill="none" xmlns="http://www.w3.org/2000/svg">
<g clip-path="url(#clip0_1335_3170)">
<path fill-rule="evenodd" clip-rule="evenodd" d="M2.30469 21.6047V2.19922H14.7159V21.6047H2.30469Z" fill="#FECF28"/>
<path fill-rule="evenodd" clip-rule="evenodd" d="M0 3.36362V0H32.6273V3.36362H0Z" fill="#140E0A"/>
<path fill-rule="evenodd" clip-rule="evenodd" d="M14.5859 13.7137V10.2207H35.9536V13.5843H14.5859V13.7137Z" fill="#140E0A"/>
<path fill-rule="evenodd" clip-rule="evenodd" d="M0 23.9339V20.5703H32.6273V23.9339H0Z" fill="#140E0A"/>
<path fill-rule="evenodd" clip-rule="evenodd" d="M0 36.3529V32.9893H32.6273V36.3529H0Z" fill="#140E0A"/>
<path fill-rule="evenodd" clip-rule="evenodd" d="M0 36.3526V15.9121H3.32671V36.3526H0Z" fill="#140E0A"/>
<path fill-rule="evenodd" clip-rule="evenodd" d="M0 20.4405V0H3.32671V20.4405H0Z" fill="#140E0A"/>
<path fill-rule="evenodd" clip-rule="evenodd" d="M3.32812 32.9895V23.9336H20.2176V32.9895H3.32812Z" fill="#E24242"/>
<path fill-rule="evenodd" clip-rule="evenodd" d="M23.6719 32.9895V23.9336H32.6284V32.9895H23.6719Z" fill="#0498CE"/>
<path fill-rule="evenodd" clip-rule="evenodd" d="M20.2148 36.3536V23.8047H23.5415V36.3536H20.2148Z" fill="#140E0A"/>
<path fill-rule="evenodd" clip-rule="evenodd" d="M14.5859 22.2514V1.16406H17.9126V22.2514H14.5859Z" fill="#140E0A"/>
<path fill-rule="evenodd" clip-rule="evenodd" d="M32.6289 36.353V0H35.9556V36.353H32.6289Z" fill="#140E0A"/>
<path d="M47.0859 16.6883C47.0859 16.8177 47.2139 16.947 47.3418 16.947H48.4934C48.6213 16.947 48.7493 16.8177 48.7493 16.6883V13.1953H52.8437V16.6883C52.8437 16.8177 52.9717 16.947 53.0996 16.947H54.2512C54.3791 16.947 54.5071 16.8177 54.5071 16.6883V8.27925C54.5071 8.14988 54.3791 8.02051 54.2512 8.02051H53.0996C52.9717 8.02051 52.8437 8.14988 52.8437 8.27925V11.6429H48.7493V8.27925C48.7493 8.14988 48.6213 8.02051 48.4934 8.02051H47.3418C47.2139 8.02051 47.0859 8.14988 47.0859 8.27925V16.6883Z" fill="#140E0A"/>
<path d="M56.554 16.9475H57.7055C57.9614 16.9475 57.9614 16.8181 58.0894 16.6888L58.7292 15.2657H62.4397L63.0795 16.6888C63.2074 16.8181 63.2074 16.9475 63.4633 16.9475H64.6149C64.7428 16.9475 64.8708 16.8181 64.8708 16.5594L61.0323 8.02097C61.0323 7.8916 60.9043 7.8916 60.7764 7.8916H60.6484C60.5205 7.8916 60.5205 7.8916 60.3925 8.02097L56.554 16.5594C56.2981 16.8181 56.426 16.9475 56.554 16.9475ZM59.241 13.8426L60.5205 10.9965L61.8 13.8426H59.241Z" fill="#140E0A"/>
<path d="M66.6602 16.6893C66.6602 16.8186 66.7881 16.948 66.9161 16.948H68.0676C68.1956 16.948 68.3235 16.8186 68.3235 16.6893V13.7138H69.8589C71.3943 13.7138 72.6738 12.4201 72.6738 10.8676C72.6738 9.31518 71.3943 8.02148 69.8589 8.02148H66.9161C66.7881 8.02148 66.6602 8.15085 66.6602 8.28022V16.6893ZM68.1956 12.1613V9.57393H69.603C70.2428 9.57393 70.8825 10.0914 70.8825 10.8676C70.8825 11.6438 70.2428 12.1613 69.603 12.1613H68.1956Z" fill="#140E0A"/>
<path d="M74.7227 16.6883C74.7227 16.8177 74.8506 16.947 74.9786 16.947H76.1301C76.2581 16.947 76.386 16.8177 76.386 16.6883V13.7128H77.9214C79.4568 13.7128 80.7363 12.4191 80.7363 10.8666C80.7363 9.31421 79.4568 8.02051 77.9214 8.02051H74.9786C74.8506 8.02051 74.7227 8.14988 74.7227 8.27925V16.6883ZM76.386 12.1603V9.57295H77.7935C78.4332 9.57295 79.073 10.0904 79.073 10.8666C79.073 11.6429 78.4332 12.1603 77.7935 12.1603H76.386Z" fill="#140E0A"/>
<path d="M84.5747 16.6883C84.5747 16.8177 84.7027 16.947 84.8306 16.947H85.9822C86.1101 16.947 86.2381 16.8177 86.2381 16.6883V12.6778L89.1809 8.40862C89.3089 8.27925 89.1809 8.02051 88.925 8.02051H87.6455C87.5176 8.02051 87.5176 8.02051 87.3896 8.14988L85.3424 11.1254L83.2952 8.14988C83.2952 8.14988 83.1673 8.02051 83.0393 8.02051H81.7598C81.5039 8.02051 81.5039 8.27925 81.5039 8.40862L84.3188 12.6778V16.6883H84.5747Z" fill="#140E0A"/>
<path d="M47.0859 28.7201C47.0859 28.8494 47.2139 28.9788 47.3418 28.9788H48.4934C48.6213 28.9788 48.7493 28.8494 48.7493 28.7201V24.839L52.076 28.9788C52.076 28.9788 52.204 29.1082 52.3319 29.1082H53.7394C53.9953 29.1082 54.1232 28.8494 53.9953 28.7201L50.5406 24.4509L53.8673 20.6991C53.9953 20.5698 53.8673 20.1816 53.6114 20.1816H52.3319C52.204 20.1816 52.2039 20.1816 52.076 20.311L48.8772 23.9334V20.4404C48.8772 20.311 48.7493 20.1816 48.6213 20.1816H47.4698C47.3418 20.1816 47.2139 20.311 47.2139 20.4404V28.7201H47.0859Z" fill="#140E0A"/>
<path d="M56.043 28.7205C56.043 28.8499 56.1709 28.9793 56.2989 28.9793H57.4504C57.5784 28.9793 57.7063 28.8499 57.7063 28.7205V20.3115C57.7063 20.1821 57.5784 20.0527 57.4504 20.0527H56.2989C56.1709 20.0527 56.043 20.1821 56.043 20.3115V28.7205Z" fill="#140E0A"/>
<path d="M61.9291 28.7205C61.9291 28.8499 62.057 28.9793 62.185 28.9793H63.3365C63.4645 28.9793 63.5924 28.8499 63.5924 28.7205V21.6052H65.5117C65.6396 21.6052 65.7676 21.4758 65.7676 21.3464V20.3115C65.7676 20.1821 65.6396 20.0527 65.5117 20.0527H60.0098C59.8819 20.0527 59.7539 20.1821 59.7539 20.3115V21.3464C59.7539 21.4758 59.8819 21.6052 60.0098 21.6052H61.9291V28.7205Z" fill="#140E0A"/>
<path d="M67.0469 24.5802C67.0469 27.1676 69.0941 29.1081 71.5251 29.1081C72.6767 29.1081 73.7003 28.72 74.596 27.8144C74.7239 27.685 74.7239 27.5557 74.596 27.4263L73.8283 26.6501C73.7003 26.5207 73.5724 26.5207 73.5724 26.6501C73.0606 27.0382 72.4208 27.4263 71.6531 27.4263C69.9897 27.4263 68.8382 26.1326 68.8382 24.4508C68.8382 22.8984 69.9897 21.4753 71.6531 21.4753C72.2929 21.4753 73.0606 21.734 73.5724 22.2515C73.7003 22.3809 73.8283 22.3809 73.8283 22.2515L74.596 21.4753C74.7239 21.3459 74.7239 21.2166 74.596 21.0872C73.7003 20.311 72.8047 19.9229 71.5251 19.9229C69.0941 19.9229 67.0469 21.9928 67.0469 24.5802Z" fill="#140E0A"/>
<path d="M77.0273 28.7205C77.0273 28.8499 77.1553 28.9793 77.2832 28.9793H78.4348C78.5627 28.9793 78.6907 28.8499 78.6907 28.7205V25.2275H82.7851V28.7205C82.7851 28.8499 82.9131 28.9793 83.041 28.9793H84.1926C84.3205 28.9793 84.4485 28.8499 84.4485 28.7205V20.3115C84.4485 20.1821 84.3205 20.0527 84.1926 20.0527H83.041C82.9131 20.0527 82.7851 20.1821 82.7851 20.3115V23.6751H78.6907V20.3115C78.6907 20.1821 78.5627 20.0527 78.4348 20.0527H77.2832C77.1553 20.0527 77.0273 20.1821 77.0273 20.3115V28.7205Z" fill="#140E0A"/>
<path d="M87.3906 28.7205C87.3906 28.8499 87.5186 28.9793 87.6465 28.9793H92.7645C92.8925 28.9793 93.0204 28.8499 93.0204 28.7205V27.6856C93.0204 27.5562 92.8925 27.4268 92.7645 27.4268H89.054V25.2275H92.1248C92.2527 25.2275 92.3807 25.0982 92.3807 24.9688V23.9338C92.3807 23.8045 92.2527 23.6751 92.1248 23.6751H89.054V21.6052H92.7645C92.8925 21.6052 93.0204 21.4758 93.0204 21.3464V20.3115C93.0204 20.1821 92.8925 20.0527 92.7645 20.0527H87.6465C87.5186 20.0527 87.3906 20.1821 87.3906 20.3115V28.7205Z" fill="#140E0A"/>
<path d="M95.5781 28.7205C95.5781 28.8499 95.7061 28.9793 95.834 28.9793H96.9856C97.1135 28.9793 97.2415 28.8499 97.2415 28.7205V23.287L102.487 29.1086H102.743C102.871 29.1086 102.999 28.9793 102.999 28.8499V20.3115C102.999 20.1821 102.871 20.0527 102.743 20.0527H101.592C101.464 20.0527 101.336 20.1821 101.336 20.3115V25.6156L96.0899 20.0527H95.834C95.7061 20.0527 95.5781 20.1821 95.5781 20.3115V28.7205Z" fill="#140E0A"/>
</g>
<defs>
<clipPath id="clip0_1335_3170">
<rect width="103" height="36.353" fill="white"/>
</clipPath>
</defs>
</svg>
