<svg width="219" height="26" viewBox="0 0 219 26" fill="none" xmlns="http://www.w3.org/2000/svg">
<path fill-rule="evenodd" clip-rule="evenodd" d="M85.002 15.4375V1.625H94.1063V15.4375H85.002Z" fill="#FECF28"/>
<path fill-rule="evenodd" clip-rule="evenodd" d="M83.3457 2.4375V0H107.348V2.4375H83.3457Z" fill="#140E0A"/>
<path fill-rule="evenodd" clip-rule="evenodd" d="M94.1875 9.75V7.3125H109.913V9.75H94.1875Z" fill="#140E0A"/>
<path fill-rule="evenodd" clip-rule="evenodd" d="M83.3457 17.0625V14.625H107.348V17.0625H83.3457Z" fill="#140E0A"/>
<path fill-rule="evenodd" clip-rule="evenodd" d="M83.3457 26V23.5625H107.348V26H83.3457Z" fill="#140E0A"/>
<path fill-rule="evenodd" clip-rule="evenodd" d="M83.3457 26V11.375H85.8287V26H83.3457Z" fill="#140E0A"/>
<path fill-rule="evenodd" clip-rule="evenodd" d="M83.3457 14.625V0H85.8287V14.625H83.3457Z" fill="#140E0A"/>
<path fill-rule="evenodd" clip-rule="evenodd" d="M85.8281 23.5625V17.0625H98.2431V23.5625H85.8281Z" fill="#E24242"/>
<path fill-rule="evenodd" clip-rule="evenodd" d="M100.809 23.5625V17.0625H107.43V23.5625H100.809Z" fill="#0498CE"/>
<path fill-rule="evenodd" clip-rule="evenodd" d="M98.3262 26V17.0625H100.809V26H98.3262Z" fill="#140E0A"/>
<path fill-rule="evenodd" clip-rule="evenodd" d="M94.1875 15.8438V0.8125H96.6705V15.8438H94.1875Z" fill="#140E0A"/>
<path fill-rule="evenodd" clip-rule="evenodd" d="M107.432 26V0H109.915V26H107.432Z" fill="#140E0A"/>
<path d="M0 20.7191C0 20.9629 0.165533 21.1254 0.413832 21.1254H2.48299C2.73129 21.1254 2.89683 20.9629 2.89683 20.7191V14.7066H10.0975V20.7191C10.0975 20.9629 10.263 21.1254 10.5113 21.1254H12.5805C12.8288 21.1254 12.9943 20.9629 12.9943 20.7191V6.33789C12.9943 6.09414 12.8288 5.93164 12.5805 5.93164H10.5113C10.263 5.93164 10.0975 6.09414 10.0975 6.33789V12.1066H2.89683V6.33789C2.89683 6.09414 2.73129 5.93164 2.48299 5.93164H0.413832C0.165533 5.93164 0 6.09414 0 6.33789V20.7191Z" fill="#140E0A"/>
<path d="M16.6361 21.125H18.5397C18.8708 21.125 19.1191 20.8813 19.2019 20.7188L20.2778 18.3625H26.8991L27.9751 20.7188C28.1406 21.0437 28.3062 21.125 28.6372 21.125H30.5409C30.8719 21.125 31.0375 20.8812 30.9547 20.5562L24.1678 5.93125C24.0851 5.76875 24.0023 5.6875 23.754 5.6875H23.5057C23.3402 5.6875 23.1746 5.76875 23.0919 5.93125L16.2223 20.5562C16.1395 20.8812 16.305 21.125 16.6361 21.125ZM21.4365 15.925L23.5885 11.1312H23.6712L25.9059 15.925H21.4365Z" fill="#140E0A"/>
<path d="M34.2656 20.7191C34.2656 20.9629 34.4312 21.1254 34.6795 21.1254H36.7486C36.9969 21.1254 37.1625 20.9629 37.1625 20.7191V15.6004H39.8937C42.625 15.6004 44.8597 13.4066 44.8597 10.7254C44.8597 8.12539 42.625 5.93164 39.8937 5.93164H34.6795C34.4312 5.93164 34.2656 6.09414 34.2656 6.33789V20.7191ZM37.1625 12.9191V8.53164H39.7282C40.9697 8.53164 41.9629 9.42539 41.9629 10.6441C41.9629 11.9441 40.8869 12.9191 39.7282 12.9191H37.1625Z" fill="#140E0A"/>
<path d="M48.666 20.7191C48.666 20.9629 48.8315 21.1254 49.0798 21.1254H51.149C51.3973 21.1254 51.5628 20.9629 51.5628 20.7191V15.6004H54.2941C57.0254 15.6004 59.2601 13.4066 59.2601 10.7254C59.2601 8.12539 57.0254 5.93164 54.2941 5.93164H49.0798C48.8315 5.93164 48.666 6.09414 48.666 6.33789V20.7191ZM51.5628 12.9191V8.53164H54.1286C55.3701 8.53164 56.3633 9.42539 56.3633 10.6441C56.3633 11.9441 55.2873 12.9191 54.1286 12.9191H51.5628Z" fill="#140E0A"/>
<path d="M66.0485 20.7184C66.0485 20.9621 66.214 21.1246 66.4623 21.1246H68.5315C68.7798 21.1246 68.9453 20.9621 68.9453 20.7184V13.8121L73.9941 6.49961C74.1596 6.25586 73.9941 5.84961 73.663 5.84961H71.4283C71.2628 5.84961 71.18 5.93086 71.0973 6.01211L67.5383 11.0496L63.9793 6.01211C63.8966 5.93086 63.8138 5.84961 63.6483 5.84961H61.4136C61.0825 5.84961 60.917 6.17461 61.0825 6.49961L66.1313 13.8121V20.7184H66.0485Z" fill="#140E0A"/>
<path d="M120.674 20.6371C120.674 20.8809 120.922 21.1246 121.17 21.1246H123.074C123.322 21.1246 123.571 20.8809 123.571 20.6371V13.9746L129.364 20.9621C129.447 21.0434 129.53 21.1246 129.778 21.1246H132.178C132.592 21.1246 132.758 20.6371 132.592 20.3934L126.385 13.0809L132.178 6.66211C132.427 6.33711 132.261 5.84961 131.847 5.84961H129.613C129.447 5.84961 129.282 5.93086 129.199 6.09336L123.653 12.2684V6.41836C123.653 6.17461 123.405 5.93086 123.157 5.93086H121.253C120.922 5.93086 120.757 6.17461 120.757 6.41836V20.6371H120.674Z" fill="#140E0A"/>
<path d="M136.398 20.7191C136.398 20.9629 136.564 21.1254 136.812 21.1254H138.881C139.13 21.1254 139.295 20.9629 139.295 20.7191V6.33789C139.295 6.09414 139.13 5.93164 138.881 5.93164H136.812C136.564 5.93164 136.398 6.09414 136.398 6.33789V20.7191Z" fill="#140E0A"/>
<path d="M146.745 20.7191C146.745 20.9629 146.91 21.1254 147.159 21.1254H149.228C149.476 21.1254 149.642 20.9629 149.642 20.7191V8.53164H153.035C153.283 8.53164 153.449 8.36914 153.449 8.12539V6.33789C153.449 6.09414 153.283 5.93164 153.035 5.93164H143.351C143.103 5.93164 142.938 6.09414 142.938 6.33789V8.12539C142.938 8.36914 143.103 8.53164 143.351 8.53164H146.745V20.7191Z" fill="#140E0A"/>
<path d="M155.766 13.5688C155.766 17.9563 159.325 21.3687 163.711 21.3687C165.698 21.3687 167.601 20.7188 169.091 19.2563C169.257 19.0938 169.257 18.85 169.091 18.6875L167.684 17.3062C167.518 17.1437 167.27 17.1437 167.105 17.3062C166.194 18.0375 165.035 18.525 163.711 18.525C160.897 18.525 158.745 16.25 158.745 13.4875C158.745 10.725 160.814 8.45 163.711 8.45C164.953 8.45 166.194 8.9375 167.105 9.75C167.27 9.9125 167.518 9.9125 167.684 9.75L169.008 8.36875C169.174 8.20625 169.174 7.9625 169.008 7.71875C167.518 6.41875 165.863 5.6875 163.628 5.6875C159.325 5.6875 155.766 9.18125 155.766 13.5688Z" fill="#140E0A"/>
<path d="M173.312 20.7191C173.312 20.9629 173.478 21.1254 173.726 21.1254H175.795C176.044 21.1254 176.209 20.9629 176.209 20.7191V14.7066H183.41V20.7191C183.41 20.9629 183.576 21.1254 183.824 21.1254H185.893C186.141 21.1254 186.307 20.9629 186.307 20.7191V6.33789C186.307 6.09414 186.141 5.93164 185.893 5.93164H183.824C183.576 5.93164 183.41 6.09414 183.41 6.33789V12.1066H176.209V6.33789C176.209 6.09414 176.044 5.93164 175.795 5.93164H173.726C173.478 5.93164 173.312 6.09414 173.312 6.33789V20.7191Z" fill="#140E0A"/>
<path d="M191.686 20.7191C191.686 20.9629 191.852 21.1254 192.1 21.1254H201.122C201.37 21.1254 201.535 20.9629 201.535 20.7191V18.9316C201.535 18.6879 201.37 18.5254 201.122 18.5254H194.5V14.7066H199.963C200.211 14.7066 200.377 14.5441 200.377 14.3004V12.5129C200.377 12.2691 200.211 12.1066 199.963 12.1066H194.5V8.53164H201.039C201.287 8.53164 201.453 8.36914 201.453 8.12539V6.33789C201.453 6.09414 201.287 5.93164 201.039 5.93164H192.017C191.769 5.93164 191.604 6.09414 191.604 6.33789V20.7191H191.686Z" fill="#140E0A"/>
<path d="M205.924 20.7188C205.924 20.9625 206.089 21.125 206.338 21.125H208.324C208.572 21.125 208.738 20.9625 208.738 20.7188V11.375L218.008 21.3687H218.504C218.753 21.3687 218.918 21.2062 218.918 20.9625V6.3375C218.918 6.09375 218.753 5.93125 218.504 5.93125H216.435C216.187 5.93125 216.021 6.09375 216.021 6.3375V15.3562L206.917 5.6875H206.338C206.089 5.6875 205.924 5.85 205.924 6.09375V20.7188Z" fill="#140E0A"/>
</svg>
